# xmcd
#
# Track frame offsets:
#	183
#	11770
#	25033
#	40870
#	53720
#	67483
#	79283
#	89270
#	99858
#	107045
#	119083
#	128245
#	141170
#	152708
#	165533
#	178758
#	191858
#	204395
#	214695
#	225758
#
# Disc length: 3211 seconds
#
# Revision: 2
# Processed by: cddbd v1.5.2PL0 Copyright (c) Steve Scherf et al.
# Submitted via: EasyCDDAExtractor 16.0.6.1
#
DISCID=140c8914
DTITLE=Sonny Boy Williamson - JB-025 Little Boy Blue
DYEAR=1991
DGENRE=Blues
TTITLE0=Born Blind
TTITLE1=Work With Me
TTITLE2=You Killing Me
TTITLE3=Keep It To Yourself
TTITLE4=Don't Lose Your Eye
TTITLE5=Good Evening Everybody
TTITLE6=Too Close Together
TTITLE7=Let Your Conscience Be Your Guide
TTITLE8=I Wonder Why
TTITLE9=This Is My Apartment
TTITLE10=One Way Out
TTITLE11=Like Wolf
TTITLE12=She Got Next To Me
TTITLE13=Keep Your Hand Out Of My Pocket
TTITLE14=Open Road
TTITLE15=Too Young To Die
TTITLE16=The Hunt
TTITLE17=That's All I Want
TTITLE18=Got To Move
TTITLE19=My Younger Days
EXTD=Aleck 'Rice' Miller (1899-1965]\n****\nCompilation (c) 1991 Zillion Recor
EXTD=ds \nLicensed from Red Dog Express Inc.\n
EXTT0=
EXTT1=
EXTT2=
EXTT3=
EXTT4=
EXTT5=
EXTT6=
EXTT7=
EXTT8=
EXTT9=
EXTT10=
EXTT11=
EXTT12=
EXTT13=
EXTT14=
EXTT15=
EXTT16=(S.B. Williamson, W. Dixon)
EXTT17=(Willy Dixon)
EXTT18=
EXTT19=
PLAYORDER=
